  0
SECTION
  2
HEADER
  9
$ANGBASE
  50
0.0
  9
$ANGDIR
  70
1
  9
$MEASUREMENT
  70
0
  0
ENDSEC
  0
SECTION
  2
TABLES
  0
TABLE
  2
LTYPE
  70
4
  0
LTYPE
  5
40F
  2
CONTINUOUS
  70
0
  3
Solid line
  72
65
  73
0
  40
0.0
  0
LTYPE
  5
410
  2
DASHDOT
 70
0
  3
Dash Dot ____ _ ____ _
 72
65
 73
4
 40
2.0
 49
1.25
 49
-0.25
 49
0.25
 49
-0.25
  0
LTYPE
  5
411
  2
DASHED
 70
0
  3
Dashed __ __ __ __ __
 72
65
 73
2
 40
0.75
 49
0.5
 49
-0.25
  0
LTYPE
  5
43B
  2
DOTTED
 70
0
  3
Dotted .  .  .  .
 72
65
 73
2
 40
0.2
 49
0.0
 49
-0.2
  0
ENDTAB
  0
TABLE
  2
STYLE
  70
4
  0
STYLE
  2
KICAD
  70
0
  40
0
  41
1
  42
1
  50
0
  71
0
  3
isocp.shx
  0
STYLE
  2
KICADB
  70
0
  40
0
  41
1
  42
1
  50
0
  71
0
  3
isocp.shx
  0
STYLE
  2
KICADI
  70
0
  40
0
  41
1
  42
1
  50
15
  71
0
  3
isocp.shx
  0
STYLE
  2
KICADBI
  70
0
  40
0
  41
1
  42
1
  50
15
  71
0
  3
isocp.shx
  0
ENDTAB
  0
TABLE
  2
LAYER
  70
1
  0
LAYER
  2
BLACK
  70
0
  62
7
  6
CONTINUOUS
  0
ENDTAB
  0
ENDSEC
  0
SECTION
  2
ENTITIES
0
LINE
8
BLACK
6
CONTINUOUS
10
2.38882
20
-8.74531
11
2.37274
21
-8.74331
0
LINE
8
BLACK
6
CONTINUOUS
10
2.37274
20
-8.74331
11
2.35689
21
-8.73999
0
LINE
8
BLACK
6
CONTINUOUS
10
2.35689
20
-8.73999
11
2.34136
21
-8.73537
0
LINE
8
BLACK
6
CONTINUOUS
10
2.34136
20
-8.73537
11
2.32627
21
-8.72948
0
LINE
8
BLACK
6
CONTINUOUS
10
2.32627
20
-8.72948
11
2.31172
21
-8.72236
0
LINE
8
BLACK
6
CONTINUOUS
10
2.31172
20
-8.72236
11
2.29781
21
-8.71407
0
LINE
8
BLACK
6
CONTINUOUS
10
2.29781
20
-8.71407
11
2.28462
21
-8.70466
0
LINE
8
BLACK
6
CONTINUOUS
10
2.28462
20
-8.70466
11
2.27226
21
-8.69419
0
LINE
8
BLACK
6
CONTINUOUS
10
2.27226
20
-8.69419
11
2.26081
21
-8.68274
0
LINE
8
BLACK
6
CONTINUOUS
10
2.26081
20
-8.68274
11
2.25034
21
-8.67038
0
LINE
8
BLACK
6
CONTINUOUS
10
2.25034
20
-8.67038
11
2.24093
21
-8.65719
0
LINE
8
BLACK
6
CONTINUOUS
10
2.24093
20
-8.65719
11
2.23264
21
-8.64328
0
LINE
8
BLACK
6
CONTINUOUS
10
2.23264
20
-8.64328
11
2.22552
21
-8.62873
0
LINE
8
BLACK
6
CONTINUOUS
10
2.22552
20
-8.62873
11
2.21963
21
-8.61364
0
LINE
8
BLACK
6
CONTINUOUS
10
2.21963
20
-8.61364
11
2.21501
21
-8.59811
0
LINE
8
BLACK
6
CONTINUOUS
10
2.21501
20
-8.59811
11
2.21169
21
-8.58226
0
LINE
8
BLACK
6
CONTINUOUS
10
2.21169
20
-8.58226
11
2.20969
21
-8.56618
0
LINE
8
BLACK
6
CONTINUOUS
10
2.20969
20
-8.56618
11
2.20902
21
-8.55
0
LINE
8
BLACK
6
CONTINUOUS
10
2.20902
20
-8.55
11
2.20902
21
-2.055
0
LINE
8
BLACK
6
CONTINUOUS
10
2.20902
20
-2.055
11
2.20974
21
-2.03835
0
LINE
8
BLACK
6
CONTINUOUS
10
2.20974
20
-2.03835
11
2.21192
21
-2.02184
0
LINE
8
BLACK
6
CONTINUOUS
10
2.21192
20
-2.02184
11
2.21552
21
-2.00557
0
LINE
8
BLACK
6
CONTINUOUS
10
2.21552
20
-2.00557
11
2.22053
21
-1.98968
0
LINE
8
BLACK
6
CONTINUOUS
10
2.22053
20
-1.98968
11
2.22691
21
-1.97429
0
LINE
8
BLACK
6
CONTINUOUS
10
2.22691
20
-1.97429
11
2.2346
21
-1.95951
0
LINE
8
BLACK
6
CONTINUOUS
10
2.2346
20
-1.95951
11
2.24355
21
-1.94546
0
LINE
8
BLACK
6
CONTINUOUS
10
2.24355
20
-1.94546
11
2.2537
21
-1.93224
0
LINE
8
BLACK
6
CONTINUOUS
10
2.2537
20
-1.93224
11
2.26495
21
-1.91995
0
LINE
8
BLACK
6
CONTINUOUS
10
2.26495
20
-1.91995
11
2.27724
21
-1.9087
0
LINE
8
BLACK
6
CONTINUOUS
10
2.27724
20
-1.9087
11
2.29046
21
-1.89855
0
LINE
8
BLACK
6
CONTINUOUS
10
2.29046
20
-1.89855
11
2.30451
21
-1.8896
0
LINE
8
BLACK
6
CONTINUOUS
10
2.30451
20
-1.8896
11
2.31929
21
-1.88191
0
LINE
8
BLACK
6
CONTINUOUS
10
2.31929
20
-1.88191
11
2.33468
21
-1.87553
0
LINE
8
BLACK
6
CONTINUOUS
10
2.33468
20
-1.87553
11
2.35057
21
-1.87052
0
LINE
8
BLACK
6
CONTINUOUS
10
2.35057
20
-1.87052
11
2.36684
21
-1.86692
0
LINE
8
BLACK
6
CONTINUOUS
10
2.36684
20
-1.86692
11
2.38335
21
-1.86474
0
LINE
8
BLACK
6
CONTINUOUS
10
2.38335
20
-1.86474
11
2.4
21
-1.86402
0
LINE
8
BLACK
6
CONTINUOUS
10
2.4
20
-1.86402
11
2.4
21
-1.86402
0
LINE
8
BLACK
6
CONTINUOUS
10
2.4
20
-1.86402
11
13.895
21
-1.85902
0
LINE
8
BLACK
6
CONTINUOUS
10
13.895
20
-1.85902
11
13.895
21
-1.85902
0
LINE
8
BLACK
6
CONTINUOUS
10
13.895
20
-1.85902
11
13.895
21
-1.85902
0
LINE
8
BLACK
6
CONTINUOUS
10
13.895
20
-1.85902
11
13.9112
21
-1.85969
0
LINE
8
BLACK
6
CONTINUOUS
10
13.9112
20
-1.85969
11
13.9273
21
-1.86169
0
LINE
8
BLACK
6
CONTINUOUS
10
13.9273
20
-1.86169
11
13.9431
21
-1.86501
0
LINE
8
BLACK
6
CONTINUOUS
10
13.9431
20
-1.86501
11
13.9586
21
-1.86963
0
LINE
8
BLACK
6
CONTINUOUS
10
13.9586
20
-1.86963
11
13.9737
21
-1.87552
0
LINE
8
BLACK
6
CONTINUOUS
10
13.9737
20
-1.87552
11
13.9883
21
-1.88264
0
LINE
8
BLACK
6
CONTINUOUS
10
13.9883
20
-1.88264
11
14.0022
21
-1.89093
0
LINE
8
BLACK
6
CONTINUOUS
10
14.0022
20
-1.89093
11
14.0154
21
-1.90034
0
LINE
8
BLACK
6
CONTINUOUS
10
14.0154
20
-1.90034
11
14.0277
21
-1.91081
0
LINE
8
BLACK
6
CONTINUOUS
10
14.0277
20
-1.91081
11
14.0392
21
-1.92226
0
LINE
8
BLACK
6
CONTINUOUS
10
14.0392
20
-1.92226
11
14.0497
21
-1.93462
0
LINE
8
BLACK
6
CONTINUOUS
10
14.0497
20
-1.93462
11
14.0591
21
-1.94781
0
LINE
8
BLACK
6
CONTINUOUS
10
14.0591
20
-1.94781
11
14.0674
21
-1.96172
0
LINE
8
BLACK
6
CONTINUOUS
10
14.0674
20
-1.96172
11
14.0745
21
-1.97627
0
LINE
8
BLACK
6
CONTINUOUS
10
14.0745
20
-1.97627
11
14.0804
21
-1.99136
0
LINE
8
BLACK
6
CONTINUOUS
10
14.0804
20
-1.99136
11
14.085
21
-2.00689
0
LINE
8
BLACK
6
CONTINUOUS
10
14.085
20
-2.00689
11
14.0883
21
-2.02274
0
LINE
8
BLACK
6
CONTINUOUS
10
14.0883
20
-2.02274
11
14.0903
21
-2.03882
0
LINE
8
BLACK
6
CONTINUOUS
10
14.0903
20
-2.03882
11
14.091
21
-2.055
0
LINE
8
BLACK
6
CONTINUOUS
10
14.091
20
-2.055
11
14.091
21
-2.055
0
LINE
8
BLACK
6
CONTINUOUS
10
14.091
20
-2.055
11
14.096
21
-8.55
0
LINE
8
BLACK
6
CONTINUOUS
10
14.096
20
-8.55
11
14.096
21
-8.55
0
LINE
8
BLACK
6
CONTINUOUS
10
14.096
20
-8.55
11
14.096
21
-8.55
0
LINE
8
BLACK
6
CONTINUOUS
10
14.096
20
-8.55
11
14.0953
21
-8.56618
0
LINE
8
BLACK
6
CONTINUOUS
10
14.0953
20
-8.56618
11
14.0933
21
-8.58226
0
LINE
8
BLACK
6
CONTINUOUS
10
14.0933
20
-8.58226
11
14.09
21
-8.59811
0
LINE
8
BLACK
6
CONTINUOUS
10
14.09
20
-8.59811
11
14.0854
21
-8.61364
0
LINE
8
BLACK
6
CONTINUOUS
10
14.0854
20
-8.61364
11
14.0795
21
-8.62873
0
LINE
8
BLACK
6
CONTINUOUS
10
14.0795
20
-8.62873
11
14.0724
21
-8.64328
0
LINE
8
BLACK
6
CONTINUOUS
10
14.0724
20
-8.64328
11
14.0641
21
-8.65719
0
LINE
8
BLACK
6
CONTINUOUS
10
14.0641
20
-8.65719
11
14.0547
21
-8.67038
0
LINE
8
BLACK
6
CONTINUOUS
10
14.0547
20
-8.67038
11
14.0442
21
-8.68274
0
LINE
8
BLACK
6
CONTINUOUS
10
14.0442
20
-8.68274
11
14.0327
21
-8.69419
0
LINE
8
BLACK
6
CONTINUOUS
10
14.0327
20
-8.69419
11
14.0204
21
-8.70466
0
LINE
8
BLACK
6
CONTINUOUS
10
14.0204
20
-8.70466
11
14.0072
21
-8.71407
0
LINE
8
BLACK
6
CONTINUOUS
10
14.0072
20
-8.71407
11
13.9933
21
-8.72236
0
LINE
8
BLACK
6
CONTINUOUS
10
13.9933
20
-8.72236
11
13.9787
21
-8.72948
0
LINE
8
BLACK
6
CONTINUOUS
10
13.9787
20
-8.72948
11
13.9636
21
-8.73537
0
LINE
8
BLACK
6
CONTINUOUS
10
13.9636
20
-8.73537
11
13.9481
21
-8.73999
0
LINE
8
BLACK
6
CONTINUOUS
10
13.9481
20
-8.73999
11
13.9323
21
-8.74331
0
LINE
8
BLACK
6
CONTINUOUS
10
13.9323
20
-8.74331
11
13.9162
21
-8.74531
0
LINE
8
BLACK
6
CONTINUOUS
10
13.9162
20
-8.74531
11
13.9
21
-8.74598
0
LINE
8
BLACK
6
CONTINUOUS
10
13.9
20
-8.74598
11
2.405
21
-8.74598
0
LINE
8
BLACK
6
CONTINUOUS
10
2.405
20
-8.74598
11
2.38882
21
-8.74531
0
LINE
8
BLACK
6
CONTINUOUS
10
13.9169
20
-8.74346
11
13.9337
21
-8.74125
0
LINE
8
BLACK
6
CONTINUOUS
10
13.9337
20
-8.74125
11
13.9503
21
-8.73758
0
LINE
8
BLACK
6
CONTINUOUS
10
13.9503
20
-8.73758
11
13.9664
21
-8.73249
0
LINE
8
BLACK
6
CONTINUOUS
10
13.9664
20
-8.73249
11
13.9821
21
-8.72601
0
LINE
8
BLACK
6
CONTINUOUS
10
13.9821
20
-8.72601
11
13.9971
21
-8.71818
0
LINE
8
BLACK
6
CONTINUOUS
10
13.9971
20
-8.71818
11
14.0114
21
-8.70908
0
LINE
8
BLACK
6
CONTINUOUS
10
14.0114
20
-8.70908
11
14.0248
21
-8.69877
0
LINE
8
BLACK
6
CONTINUOUS
10
14.0248
20
-8.69877
11
14.0373
21
-8.68732
0
LINE
8
BLACK
6
CONTINUOUS
10
14.0373
20
-8.68732
11
14.0488
21
-8.67483
0
LINE
8
BLACK
6
CONTINUOUS
10
14.0488
20
-8.67483
11
14.0591
21
-8.66139
0
LINE
8
BLACK
6
CONTINUOUS
10
14.0591
20
-8.66139
11
14.0682
21
-8.6471
0
LINE
8
BLACK
6
CONTINUOUS
10
14.0682
20
-8.6471
11
14.076
21
-8.63207
0
LINE
8
BLACK
6
CONTINUOUS
10
14.076
20
-8.63207
11
14.0825
21
-8.61642
0
LINE
8
BLACK
6
CONTINUOUS
10
14.0825
20
-8.61642
11
14.0876
21
-8.60026
0
LINE
8
BLACK
6
CONTINUOUS
10
14.0876
20
-8.60026
11
14.0913
21
-8.58372
0
LINE
8
BLACK
6
CONTINUOUS
10
14.0913
20
-8.58372
11
14.0935
21
-8.56693
0
LINE
8
BLACK
6
CONTINUOUS
10
14.0935
20
-8.56693
11
14.0942
21
-8.5504
0
LINE
8
BLACK
6
CONTINUOUS
10
14.0942
20
-8.5504
11
14.0942
21
-8.55032
0
LINE
8
BLACK
6
CONTINUOUS
10
14.0942
20
-8.55032
11
14.094
21
-8.55
0
LINE
8
BLACK
6
CONTINUOUS
10
14.094
20
-8.55
11
14.089
21
-2.055
0
LINE
8
BLACK
6
CONTINUOUS
10
14.089
20
-2.055
11
14.089
21
-2.055
0
LINE
8
BLACK
6
CONTINUOUS
10
14.089
20
-2.055
11
14.089
21
-2.055
0
LINE
8
BLACK
6
CONTINUOUS
10
14.089
20
-2.055
11
14.0892
21
-2.05461
0
LINE
8
BLACK
6
CONTINUOUS
10
14.0892
20
-2.05461
11
14.0892
21
-2.0546
0
LINE
8
BLACK
6
CONTINUOUS
10
14.0892
20
-2.0546
11
14.0885
21
-2.03807
0
LINE
8
BLACK
6
CONTINUOUS
10
14.0885
20
-2.03807
11
14.0863
21
-2.02128
0
LINE
8
BLACK
6
CONTINUOUS
10
14.0863
20
-2.02128
11
14.0826
21
-2.00474
0
LINE
8
BLACK
6
CONTINUOUS
10
14.0826
20
-2.00474
11
14.0775
21
-1.98858
0
LINE
8
BLACK
6
CONTINUOUS
10
14.0775
20
-1.98858
11
14.071
21
-1.97293
0
LINE
8
BLACK
6
CONTINUOUS
10
14.071
20
-1.97293
11
14.0632
21
-1.9579
0
LINE
8
BLACK
6
CONTINUOUS
10
14.0632
20
-1.9579
11
14.0541
21
-1.94361
0
LINE
8
BLACK
6
CONTINUOUS
10
14.0541
20
-1.94361
11
14.0438
21
-1.93017
0
LINE
8
BLACK
6
CONTINUOUS
10
14.0438
20
-1.93017
11
14.0323
21
-1.91768
0
LINE
8
BLACK
6
CONTINUOUS
10
14.0323
20
-1.91768
11
14.0198
21
-1.90623
0
LINE
8
BLACK
6
CONTINUOUS
10
14.0198
20
-1.90623
11
14.0064
21
-1.89592
0
LINE
8
BLACK
6
CONTINUOUS
10
14.0064
20
-1.89592
11
13.9921
21
-1.88682
0
LINE
8
BLACK
6
CONTINUOUS
10
13.9921
20
-1.88682
11
13.9771
21
-1.87899
0
LINE
8
BLACK
6
CONTINUOUS
10
13.9771
20
-1.87899
11
13.9614
21
-1.87251
0
LINE
8
BLACK
6
CONTINUOUS
10
13.9614
20
-1.87251
11
13.9453
21
-1.86742
0
LINE
8
BLACK
6
CONTINUOUS
10
13.9453
20
-1.86742
11
13.9287
21
-1.86375
0
LINE
8
BLACK
6
CONTINUOUS
10
13.9287
20
-1.86375
11
13.9119
21
-1.86154
0
LINE
8
BLACK
6
CONTINUOUS
10
13.9119
20
-1.86154
11
13.8954
21
-1.86082
0
LINE
8
BLACK
6
CONTINUOUS
10
13.8954
20
-1.86082
11
13.8953
21
-1.86085
0
LINE
8
BLACK
6
CONTINUOUS
10
13.8953
20
-1.86085
11
13.895
21
-1.86098
0
LINE
8
BLACK
6
CONTINUOUS
10
13.895
20
-1.86098
11
2.4
21
-1.86598
0
LINE
8
BLACK
6
CONTINUOUS
10
2.4
20
-1.86598
11
2.4
21
-1.86598
0
LINE
8
BLACK
6
CONTINUOUS
10
2.4
20
-1.86598
11
2.4
21
-1.86598
0
LINE
8
BLACK
6
CONTINUOUS
10
2.4
20
-1.86598
11
2.39967
21
-1.86585
0
LINE
8
BLACK
6
CONTINUOUS
10
2.39967
20
-1.86585
11
2.39961
21
-1.86582
0
LINE
8
BLACK
6
CONTINUOUS
10
2.39961
20
-1.86582
11
2.38351
21
-1.86652
0
LINE
8
BLACK
6
CONTINUOUS
10
2.38351
20
-1.86652
11
2.36715
21
-1.86868
0
LINE
8
BLACK
6
CONTINUOUS
10
2.36715
20
-1.86868
11
2.35103
21
-1.87225
0
LINE
8
BLACK
6
CONTINUOUS
10
2.35103
20
-1.87225
11
2.33529
21
-1.87721
0
LINE
8
BLACK
6
CONTINUOUS
10
2.33529
20
-1.87721
11
2.32004
21
-1.88353
0
LINE
8
BLACK
6
CONTINUOUS
10
2.32004
20
-1.88353
11
2.3054
21
-1.89115
0
LINE
8
BLACK
6
CONTINUOUS
10
2.3054
20
-1.89115
11
2.29148
21
-1.90002
0
LINE
8
BLACK
6
CONTINUOUS
10
2.29148
20
-1.90002
11
2.27839
21
-1.91007
0
LINE
8
BLACK
6
CONTINUOUS
10
2.27839
20
-1.91007
11
2.26622
21
-1.92122
0
LINE
8
BLACK
6
CONTINUOUS
10
2.26622
20
-1.92122
11
2.25507
21
-1.93339
0
LINE
8
BLACK
6
CONTINUOUS
10
2.25507
20
-1.93339
11
2.24502
21
-1.94648
0
LINE
8
BLACK
6
CONTINUOUS
10
2.24502
20
-1.94648
11
2.23615
21
-1.9604
0
LINE
8
BLACK
6
CONTINUOUS
10
2.23615
20
-1.9604
11
2.22853
21
-1.97504
0
LINE
8
BLACK
6
CONTINUOUS
10
2.22853
20
-1.97504
11
2.22221
21
-1.99029
0
LINE
8
BLACK
6
CONTINUOUS
10
2.22221
20
-1.99029
11
2.21725
21
-2.00603
0
LINE
8
BLACK
6
CONTINUOUS
10
2.21725
20
-2.00603
11
2.21368
21
-2.02215
0
LINE
8
BLACK
6
CONTINUOUS
10
2.21368
20
-2.02215
11
2.21152
21
-2.03851
0
LINE
8
BLACK
6
CONTINUOUS
10
2.21152
20
-2.03851
11
2.21082
21
-2.05461
0
LINE
8
BLACK
6
CONTINUOUS
10
2.21082
20
-2.05461
11
2.21098
21
-2.055
0
LINE
8
BLACK
6
CONTINUOUS
10
2.21098
20
-2.055
11
2.21098
21
-8.55
0
LINE
8
BLACK
6
CONTINUOUS
10
2.21098
20
-8.55
11
2.21082
21
-8.5504
0
LINE
8
BLACK
6
CONTINUOUS
10
2.21082
20
-8.5504
11
2.21154
21
-8.56693
0
LINE
8
BLACK
6
CONTINUOUS
10
2.21154
20
-8.56693
11
2.21375
21
-8.58372
0
LINE
8
BLACK
6
CONTINUOUS
10
2.21375
20
-8.58372
11
2.21742
21
-8.60026
0
LINE
8
BLACK
6
CONTINUOUS
10
2.21742
20
-8.60026
11
2.22251
21
-8.61642
0
LINE
8
BLACK
6
CONTINUOUS
10
2.22251
20
-8.61642
11
2.22899
21
-8.63207
0
LINE
8
BLACK
6
CONTINUOUS
10
2.22899
20
-8.63207
11
2.23682
21
-8.6471
0
LINE
8
BLACK
6
CONTINUOUS
10
2.23682
20
-8.6471
11
2.24592
21
-8.66139
0
LINE
8
BLACK
6
CONTINUOUS
10
2.24592
20
-8.66139
11
2.25623
21
-8.67483
0
LINE
8
BLACK
6
CONTINUOUS
10
2.25623
20
-8.67483
11
2.26768
21
-8.68732
0
LINE
8
BLACK
6
CONTINUOUS
10
2.26768
20
-8.68732
11
2.28017
21
-8.69877
0
LINE
8
BLACK
6
CONTINUOUS
10
2.28017
20
-8.69877
11
2.29361
21
-8.70908
0
LINE
8
BLACK
6
CONTINUOUS
10
2.29361
20
-8.70908
11
2.3079
21
-8.71818
0
LINE
8
BLACK
6
CONTINUOUS
10
2.3079
20
-8.71818
11
2.32293
21
-8.72601
0
LINE
8
BLACK
6
CONTINUOUS
10
2.32293
20
-8.72601
11
2.33858
21
-8.73249
0
LINE
8
BLACK
6
CONTINUOUS
10
2.33858
20
-8.73249
11
2.35474
21
-8.73758
0
LINE
8
BLACK
6
CONTINUOUS
10
2.35474
20
-8.73758
11
2.37128
21
-8.74125
0
LINE
8
BLACK
6
CONTINUOUS
10
2.37128
20
-8.74125
11
2.38807
21
-8.74346
0
LINE
8
BLACK
6
CONTINUOUS
10
2.38807
20
-8.74346
11
2.4046
21
-8.74418
0
LINE
8
BLACK
6
CONTINUOUS
10
2.4046
20
-8.74418
11
2.405
21
-8.74402
0
LINE
8
BLACK
6
CONTINUOUS
10
2.405
20
-8.74402
11
13.9
21
-8.74402
0
LINE
8
BLACK
6
CONTINUOUS
10
13.9
20
-8.74402
11
13.9004
21
-8.74418
0
LINE
8
BLACK
6
CONTINUOUS
10
13.9004
20
-8.74418
11
13.9169
21
-8.74346
  0
ENDSEC
  0
EOF
