M48
; DRILL file {KiCad (6.0.0)} date Thu Jan  5 23:03:01 2023
; FORMAT={-:-/ absolute / inch / decimal}
; #@! TF.CreationDate,2023-01-05T23:03:01-06:00
; #@! TF.GenerationSoftware,Kicad,Pcbnew,(6.0.0)
; #@! TF.FileFunction,Plated,1,2,PTH
FMAT,2
INCH
; #@! TA.AperFunction,Plated,PTH,ComponentDrill
T1C0.0157
; #@! TA.AperFunction,Plated,PTH,ComponentDrill
T2C0.0906
%
G90
G05
T1
X2.3009Y-5.305
X2.3183Y-5.2633
X2.3183Y-5.3467
X2.3409Y-2.055
X2.3459Y-8.55
X2.3583Y-2.0133
X2.3583Y-2.0967
X2.36Y-5.2459
X2.36Y-5.3641
X2.3633Y-8.5083
X2.3633Y-8.5917
X2.4Y-1.9959
X2.4Y-2.1141
X2.4017Y-5.2633
X2.4017Y-5.3467
X2.405Y-8.4909
X2.405Y-8.6091
X2.4191Y-5.305
X2.4417Y-2.0133
X2.4417Y-2.0967
X2.4467Y-8.5083
X2.4467Y-8.5917
X2.4591Y-2.055
X2.4641Y-8.55
X3.0909Y-6.05
X3.0909Y-7.55
X3.1083Y-6.0083
X3.1083Y-6.0917
X3.1083Y-7.5083
X3.1083Y-7.5917
X3.15Y-5.9909
X3.15Y-6.1091
X3.15Y-7.4909
X3.15Y-7.6091
X3.1917Y-6.0083
X3.1917Y-6.0917
X3.1917Y-7.5083
X3.1917Y-7.5917
X3.2091Y-6.05
X3.2091Y-7.55
X4.5909Y-3.05
X4.5909Y-5.3
X4.5909Y-7.55
X4.6083Y-3.0083
X4.6083Y-3.0917
X4.6083Y-5.2583
X4.6083Y-5.3417
X4.6083Y-7.5083
X4.6083Y-7.5917
X4.65Y-2.9909
X4.65Y-3.1091
X4.65Y-5.2409
X4.65Y-5.3591
X4.65Y-7.4909
X4.65Y-7.6091
X4.6917Y-3.0083
X4.6917Y-3.0917
X4.6917Y-5.2583
X4.6917Y-5.3417
X4.6917Y-7.5083
X4.6917Y-7.5917
X4.7091Y-3.05
X4.7091Y-5.3
X4.7091Y-7.55
X6.8409Y-2.055
X6.8459Y-8.55
X6.8583Y-2.0133
X6.8583Y-2.0967
X6.8633Y-8.5083
X6.8633Y-8.5917
X6.9Y-1.9959
X6.9Y-2.1141
X6.905Y-8.4909
X6.905Y-8.6091
X6.9417Y-2.0133
X6.9417Y-2.0967
X6.9467Y-8.5083
X6.9467Y-8.5917
X6.9591Y-2.055
X6.9641Y-8.55
X7.5907Y-5.2989
X7.5909Y-3.05
X7.608Y-5.2572
X7.608Y-5.3407
X7.6083Y-3.0083
X7.6083Y-3.0917
X7.6498Y-5.2399
X7.6498Y-5.358
X7.65Y-2.9909
X7.65Y-3.1091
X7.6915Y-5.2572
X7.6915Y-5.3407
X7.6917Y-3.0083
X7.6917Y-3.0917
X7.7088Y-5.2989
X7.7091Y-3.05
X8.3409Y-7.55
X8.3583Y-7.5083
X8.3583Y-7.5917
X8.4Y-7.4909
X8.4Y-7.6091
X8.4417Y-7.5083
X8.4417Y-7.5917
X8.4591Y-7.55
X9.8409Y-2.055
X9.8409Y-3.05
X9.8409Y-5.3
X9.8409Y-6.8
X9.8459Y-8.55
X9.8583Y-2.0133
X9.8583Y-2.0967
X9.8583Y-3.0083
X9.8583Y-3.0917
X9.8583Y-5.2583
X9.8583Y-5.3417
X9.8583Y-6.7583
X9.8583Y-6.8417
X9.8633Y-8.5083
X9.8633Y-8.5917
X9.9Y-1.9959
X9.9Y-2.1141
X9.9Y-2.9909
X9.9Y-3.1091
X9.9Y-5.2409
X9.9Y-5.3591
X9.9Y-6.7409
X9.9Y-6.8591
X9.905Y-8.4909
X9.905Y-8.6091
X9.9417Y-2.0133
X9.9417Y-2.0967
X9.9417Y-3.0083
X9.9417Y-3.0917
X9.9417Y-5.2583
X9.9417Y-5.3417
X9.9417Y-6.7583
X9.9417Y-6.8417
X9.9467Y-8.5083
X9.9467Y-8.5917
X9.9591Y-2.055
X9.9591Y-3.05
X9.9591Y-5.3
X9.9591Y-6.8
X9.9641Y-8.55
X12.8309Y-7.55
X12.8409Y-3.05
X12.8409Y-5.3
X12.8483Y-7.5083
X12.8483Y-7.5917
X12.8583Y-3.0083
X12.8583Y-3.0917
X12.8583Y-5.2583
X12.8583Y-5.3417
X12.89Y-7.4909
X12.89Y-7.6091
X12.9Y-2.9909
X12.9Y-3.1091
X12.9Y-5.2409
X12.9Y-5.3591
X12.9317Y-7.5083
X12.9317Y-7.5917
X12.9417Y-3.0083
X12.9417Y-3.0917
X12.9417Y-5.2583
X12.9417Y-5.3417
X12.9491Y-7.55
X12.9591Y-3.05
X12.9591Y-5.3
X13.8359Y-2.055
X13.8409Y-8.55
X13.8533Y-2.0133
X13.8533Y-2.0967
X13.8583Y-8.5083
X13.8583Y-8.5917
X13.8859Y-5.3
X13.895Y-1.9959
X13.895Y-2.1141
X13.9Y-8.4909
X13.9Y-8.6091
X13.9033Y-5.2583
X13.9033Y-5.3417
X13.9367Y-2.0133
X13.9367Y-2.0967
X13.9417Y-8.5083
X13.9417Y-8.5917
X13.945Y-5.2409
X13.945Y-5.3591
X13.9541Y-2.055
X13.9591Y-8.55
X13.9867Y-5.2583
X13.9867Y-5.3417
X14.0041Y-5.3
T2
X2.36Y-5.305
X2.4Y-2.055
X2.405Y-8.55
X3.15Y-6.05
X3.15Y-7.55
X4.65Y-3.05
X4.65Y-5.3
X4.65Y-7.55
X6.9Y-2.055
X6.905Y-8.55
X7.6498Y-5.2989
X7.65Y-3.05
X8.4Y-7.55
X9.9Y-2.055
X9.9Y-3.05
X9.9Y-5.3
X9.9Y-6.8
X9.905Y-8.55
X12.89Y-7.55
X12.9Y-3.05
X12.9Y-5.3
X13.895Y-2.055
X13.9Y-8.55
X13.945Y-5.3
T0
M30
