%TF.GenerationSoftware,KiCad,Pcbnew,(6.0.0)*%
%TF.CreationDate,2023-01-05T23:03:01-06:00*%
%TF.ProjectId,Ortholith Top Plate (3D Printed Base),4f727468-6f6c-4697-9468-20546f702050,rev?*%
%TF.SameCoordinates,Original*%
%TF.FileFunction,Soldermask,Top*%
%TF.FilePolarity,Negative*%
%FSLAX46Y46*%
G04 Gerber Fmt 4.6, Leading zero omitted, Abs format (unit mm)*
G04 Created by KiCad (PCBNEW (6.0.0)) date 2023-01-05 23:03:01*
%MOMM*%
%LPD*%
G01*
G04 APERTURE LIST*
%ADD10C,0.500000*%
%ADD11C,4.000000*%
G04 APERTURE END LIST*
%TO.C,G\u002A\u002A\u002A*%
G36*
X88153797Y-96387886D02*
G01*
X88135188Y-96525175D01*
X88047413Y-96586195D01*
X87842549Y-96600898D01*
X87812858Y-96600974D01*
X87471918Y-96600974D01*
X87471918Y-99498960D01*
X86790039Y-99498960D01*
X86790039Y-96600974D01*
X86449099Y-96600974D01*
X86229438Y-96589343D01*
X86131806Y-96534483D01*
X86108281Y-96406443D01*
X86108160Y-96387886D01*
X86108160Y-96174799D01*
X88153797Y-96174799D01*
X88153797Y-96387886D01*
G37*
G36*
X85681985Y-96387886D02*
G01*
X85663376Y-96525175D01*
X85575601Y-96586195D01*
X85370737Y-96600898D01*
X85341046Y-96600974D01*
X85000106Y-96600974D01*
X85000106Y-99072786D01*
X85341046Y-99072786D01*
X85560707Y-99084416D01*
X85658339Y-99139276D01*
X85681864Y-99267316D01*
X85681985Y-99285873D01*
X85681985Y-99498960D01*
X83636348Y-99498960D01*
X83636348Y-99285873D01*
X83654957Y-99148585D01*
X83742732Y-99087565D01*
X83947596Y-99072862D01*
X83977287Y-99072786D01*
X84318227Y-99072786D01*
X84318227Y-96600974D01*
X83977287Y-96600974D01*
X83757626Y-96589343D01*
X83659994Y-96534483D01*
X83636469Y-96406443D01*
X83636348Y-96387886D01*
X83636348Y-96174799D01*
X85681985Y-96174799D01*
X85681985Y-96387886D01*
G37*
G36*
X72034959Y-96174799D02*
G01*
X72514954Y-96185947D01*
X72852203Y-96230502D01*
X73073603Y-96325131D01*
X73206055Y-96486502D01*
X73276457Y-96731283D01*
X73303176Y-96960624D01*
X73315975Y-97253879D01*
X73284856Y-97439539D01*
X73196867Y-97577645D01*
X73162202Y-97614046D01*
X72981985Y-97794262D01*
X73152455Y-97964732D01*
X73241154Y-98081959D01*
X73293269Y-98243056D01*
X73317574Y-98491890D01*
X73322925Y-98817081D01*
X73322925Y-99498960D01*
X72726281Y-99498960D01*
X72726281Y-98993100D01*
X72710744Y-98572027D01*
X72654804Y-98293444D01*
X72544461Y-98131430D01*
X72365717Y-98060063D01*
X72216981Y-98049967D01*
X71873932Y-98049967D01*
X71873932Y-99498960D01*
X71192052Y-99498960D01*
X71192052Y-97633594D01*
X71873932Y-97633594D01*
X72234598Y-97607385D01*
X72475620Y-97572448D01*
X72605771Y-97490372D01*
X72677226Y-97346779D01*
X72709350Y-97010328D01*
X72677226Y-96877987D01*
X72596368Y-96723411D01*
X72458061Y-96647427D01*
X72234598Y-96617382D01*
X71873932Y-96591172D01*
X71873932Y-97633594D01*
X71192052Y-97633594D01*
X71192052Y-96174799D01*
X72034959Y-96174799D01*
G37*
G36*
X81761180Y-99072786D02*
G01*
X82485677Y-99072786D01*
X82836512Y-99074742D01*
X83050628Y-99087229D01*
X83161777Y-99120174D01*
X83203709Y-99183502D01*
X83210173Y-99285873D01*
X83210173Y-99498960D01*
X81079301Y-99498960D01*
X81079301Y-96174799D01*
X81761180Y-96174799D01*
X81761180Y-99072786D01*
G37*
G36*
X68762544Y-96829849D02*
G01*
X68838917Y-96529116D01*
X68972989Y-96335616D01*
X69180421Y-96228381D01*
X69476876Y-96186444D01*
X69878017Y-96188839D01*
X69949167Y-96191768D01*
X70269040Y-96212532D01*
X70469236Y-96251888D01*
X70600545Y-96327510D01*
X70713758Y-96457070D01*
X70714498Y-96458063D01*
X70788075Y-96572455D01*
X70838396Y-96705111D01*
X70869779Y-96889247D01*
X70886542Y-97158081D01*
X70893002Y-97544829D01*
X70893730Y-97836880D01*
X70891276Y-98307376D01*
X70881034Y-98640656D01*
X70858683Y-98869935D01*
X70819904Y-99028431D01*
X70760376Y-99149361D01*
X70714402Y-99215697D01*
X70611882Y-99337165D01*
X70497830Y-99410449D01*
X70326921Y-99449207D01*
X70053829Y-99467099D01*
X69862053Y-99472554D01*
X69529516Y-99474795D01*
X69257532Y-99466067D01*
X69095835Y-99448217D01*
X69080695Y-99443545D01*
X68937244Y-99333391D01*
X68833753Y-99127892D01*
X68765961Y-98808059D01*
X68729608Y-98354903D01*
X68720240Y-97836880D01*
X69316885Y-97836880D01*
X69326043Y-98328519D01*
X69359241Y-98673982D01*
X69425060Y-98896859D01*
X69532083Y-99020742D01*
X69688893Y-99069222D01*
X69766520Y-99072786D01*
X69993017Y-99043709D01*
X70149119Y-98973454D01*
X70152187Y-98970504D01*
X70198257Y-98839953D01*
X70231287Y-98581576D01*
X70251277Y-98237519D01*
X70258228Y-97849926D01*
X70252138Y-97460942D01*
X70233008Y-97112713D01*
X70200839Y-96847382D01*
X70155629Y-96707095D01*
X70152187Y-96703256D01*
X70000372Y-96632001D01*
X69774736Y-96601016D01*
X69766520Y-96600974D01*
X69587657Y-96626148D01*
X69461974Y-96717397D01*
X69380889Y-96898312D01*
X69335819Y-97192486D01*
X69318181Y-97623507D01*
X69316885Y-97836880D01*
X68720240Y-97836880D01*
X68728206Y-97258782D01*
X68762544Y-96829849D01*
G37*
G36*
X83959958Y-83475181D02*
G01*
X84834246Y-83477395D01*
X85578339Y-83481851D01*
X86202306Y-83489268D01*
X86716217Y-83500366D01*
X87130140Y-83515862D01*
X87454144Y-83536477D01*
X87698296Y-83562929D01*
X87872667Y-83595938D01*
X87987324Y-83636222D01*
X88052336Y-83684500D01*
X88077772Y-83741492D01*
X88073701Y-83807917D01*
X88050190Y-83884493D01*
X88017310Y-83971940D01*
X88002550Y-84013801D01*
X87878012Y-84355007D01*
X87703049Y-84794682D01*
X87500582Y-85277411D01*
X87293531Y-85747780D01*
X87210339Y-85929130D01*
X87085857Y-86202794D01*
X86996354Y-86411616D01*
X86960559Y-86511836D01*
X86960509Y-86512892D01*
X86928409Y-86615033D01*
X86849930Y-86802273D01*
X86837978Y-86828696D01*
X86741430Y-87048468D01*
X86610870Y-87355890D01*
X86488209Y-87651309D01*
X86343888Y-87997648D01*
X86197935Y-88339121D01*
X86099331Y-88562908D01*
X86002709Y-88787024D01*
X85944937Y-88941062D01*
X85937690Y-88972450D01*
X85905698Y-89075054D01*
X85824816Y-89274425D01*
X85777730Y-89381992D01*
X85643853Y-89683542D01*
X85492310Y-90028059D01*
X85433477Y-90162757D01*
X85311599Y-90412630D01*
X85198453Y-90595544D01*
X85145953Y-90651552D01*
X85043342Y-90664008D01*
X84786301Y-90675738D01*
X84390870Y-90686513D01*
X83873090Y-90696103D01*
X83249000Y-90704281D01*
X82534639Y-90710815D01*
X81746049Y-90715478D01*
X80899267Y-90718040D01*
X80463478Y-90718461D01*
X75884233Y-90719766D01*
X75706978Y-90314900D01*
X75588539Y-90045121D01*
X75487707Y-89816711D01*
X75453376Y-89739564D01*
X75389203Y-89588074D01*
X75280392Y-89323113D01*
X75145315Y-88989609D01*
X75069980Y-88801980D01*
X74921447Y-88435000D01*
X74782173Y-88098039D01*
X74673771Y-87843106D01*
X74639572Y-87766280D01*
X74556563Y-87572839D01*
X74516803Y-87455204D01*
X74516214Y-87449175D01*
X74491258Y-87368301D01*
X74412737Y-87174974D01*
X74275171Y-86856304D01*
X74073078Y-86399403D01*
X74004178Y-86244933D01*
X73940216Y-86093368D01*
X73831830Y-85828269D01*
X73697328Y-85494611D01*
X73622509Y-85307350D01*
X73481158Y-84955637D01*
X73355595Y-84648928D01*
X73264349Y-84432229D01*
X73236478Y-84369766D01*
X73079273Y-83983551D01*
X73022118Y-83706998D01*
X73036113Y-83603392D01*
X73059900Y-83580663D01*
X73119574Y-83560733D01*
X73225450Y-83543422D01*
X73387843Y-83528553D01*
X73617066Y-83515947D01*
X73923435Y-83505424D01*
X74317265Y-83496806D01*
X74808870Y-83489914D01*
X75408564Y-83484570D01*
X76126663Y-83480594D01*
X76973481Y-83477807D01*
X77959333Y-83476032D01*
X79094533Y-83475089D01*
X80389396Y-83474800D01*
X80455246Y-83474799D01*
X81780527Y-83474602D01*
X82945409Y-83474489D01*
X83959958Y-83475181D01*
G37*
G36*
X78649792Y-96829849D02*
G01*
X78726166Y-96529116D01*
X78860237Y-96335616D01*
X79067669Y-96228381D01*
X79364124Y-96186444D01*
X79765265Y-96188839D01*
X79836415Y-96191768D01*
X80156288Y-96212532D01*
X80356484Y-96251888D01*
X80487794Y-96327510D01*
X80601006Y-96457070D01*
X80601746Y-96458063D01*
X80675323Y-96572455D01*
X80725644Y-96705111D01*
X80757027Y-96889247D01*
X80773790Y-97158081D01*
X80780251Y-97544829D01*
X80780979Y-97836880D01*
X80778525Y-98307376D01*
X80768282Y-98640656D01*
X80745932Y-98869935D01*
X80707153Y-99028431D01*
X80647624Y-99149361D01*
X80601651Y-99215697D01*
X80499130Y-99337165D01*
X80385078Y-99410449D01*
X80214169Y-99449207D01*
X79941077Y-99467099D01*
X79749302Y-99472554D01*
X79416764Y-99474795D01*
X79144781Y-99466067D01*
X78983084Y-99448217D01*
X78967944Y-99443545D01*
X78824493Y-99333391D01*
X78721001Y-99127892D01*
X78653209Y-98808059D01*
X78616856Y-98354903D01*
X78607489Y-97836880D01*
X79204133Y-97836880D01*
X79213292Y-98328519D01*
X79246489Y-98673982D01*
X79312308Y-98896859D01*
X79419331Y-99020742D01*
X79576141Y-99069222D01*
X79653768Y-99072786D01*
X79880265Y-99043709D01*
X80036368Y-98973454D01*
X80039435Y-98970504D01*
X80091788Y-98824870D01*
X80125547Y-98510959D01*
X80140759Y-98028260D01*
X80141717Y-97836880D01*
X80136956Y-97353837D01*
X80115957Y-97015638D01*
X80068648Y-96796769D01*
X79984955Y-96671718D01*
X79854804Y-96614968D01*
X79668124Y-96601008D01*
X79653768Y-96600974D01*
X79474905Y-96626148D01*
X79349222Y-96717397D01*
X79268137Y-96898312D01*
X79223067Y-97192486D01*
X79205430Y-97623507D01*
X79204133Y-97836880D01*
X78607489Y-97836880D01*
X78615454Y-97258782D01*
X78649792Y-96829849D01*
G37*
G36*
X75794737Y-96387886D02*
G01*
X75776128Y-96525175D01*
X75688353Y-96586195D01*
X75483489Y-96600898D01*
X75453797Y-96600974D01*
X75112858Y-96600974D01*
X75112858Y-99498960D01*
X74430979Y-99498960D01*
X74430979Y-96600974D01*
X74090039Y-96600974D01*
X73870378Y-96589343D01*
X73772746Y-96534483D01*
X73749221Y-96406443D01*
X73749099Y-96387886D01*
X73749099Y-96174799D01*
X75794737Y-96174799D01*
X75794737Y-96387886D01*
G37*
G36*
X76817556Y-97623793D02*
G01*
X77669905Y-97623793D01*
X77669905Y-96174799D01*
X78351784Y-96174799D01*
X78351784Y-99498960D01*
X77669905Y-99498960D01*
X77669905Y-98049967D01*
X76817556Y-98049967D01*
X76817556Y-99498960D01*
X76135677Y-99498960D01*
X76135677Y-96174799D01*
X76817556Y-96174799D01*
X76817556Y-97623793D01*
G37*
G36*
X68657487Y-90498008D02*
G01*
X68840466Y-90051435D01*
X68977638Y-89739564D01*
X69047757Y-89575520D01*
X69157634Y-89311547D01*
X69279281Y-89015068D01*
X69490400Y-88504565D01*
X69697555Y-88017228D01*
X69875309Y-87612662D01*
X69915832Y-87523457D01*
X69991211Y-87346372D01*
X70096543Y-87084133D01*
X70157754Y-86926813D01*
X70286480Y-86605081D01*
X70444180Y-86229029D01*
X70548520Y-85989229D01*
X70678904Y-85695474D01*
X70790466Y-85443933D01*
X70850962Y-85307350D01*
X70918690Y-85149556D01*
X71029986Y-84885629D01*
X71163210Y-84566944D01*
X71192052Y-84497618D01*
X71327262Y-84173926D01*
X71445293Y-83894175D01*
X71524440Y-83709746D01*
X71534112Y-83687886D01*
X71607054Y-83518226D01*
X71716873Y-83255472D01*
X71809649Y-83030081D01*
X71949990Y-82726941D01*
X72102288Y-82457986D01*
X72196533Y-82326893D01*
X72384214Y-82111041D01*
X89774388Y-82111041D01*
X89962765Y-82327694D01*
X90097653Y-82528488D01*
X90245836Y-82816516D01*
X90336528Y-83030882D01*
X90575675Y-83652845D01*
X90768227Y-84140194D01*
X90924659Y-84518946D01*
X91051827Y-84807254D01*
X91244785Y-85391919D01*
X91272654Y-85959235D01*
X91143026Y-86512364D01*
X91023180Y-86827717D01*
X90906762Y-87117458D01*
X90841908Y-87267752D01*
X90757648Y-87454842D01*
X90626192Y-87750462D01*
X90468680Y-88106970D01*
X90369183Y-88333189D01*
X90199173Y-88719113D01*
X90035501Y-89088375D01*
X89902435Y-89386323D01*
X89850859Y-89500492D01*
X89753518Y-89725194D01*
X89695321Y-89880668D01*
X89688026Y-89912880D01*
X89654568Y-90011722D01*
X89566320Y-90221595D01*
X89441472Y-90499469D01*
X89424816Y-90535510D01*
X89252735Y-90915845D01*
X89073589Y-91325957D01*
X88951996Y-91614732D01*
X88810678Y-91950900D01*
X88666154Y-92281275D01*
X88581158Y-92467081D01*
X88467689Y-92715082D01*
X88318447Y-93051908D01*
X88163675Y-93409215D01*
X88147420Y-93447282D01*
X87904765Y-94011302D01*
X87715035Y-94437065D01*
X87567402Y-94744414D01*
X87451043Y-94953195D01*
X87355132Y-95083251D01*
X87268843Y-95154425D01*
X87201188Y-95181850D01*
X87076014Y-95192705D01*
X86796102Y-95202215D01*
X86375597Y-95210415D01*
X85828647Y-95217338D01*
X85169398Y-95223020D01*
X84411996Y-95227493D01*
X83570588Y-95230793D01*
X82659320Y-95232954D01*
X81692339Y-95234009D01*
X80683790Y-95233992D01*
X79647821Y-95232939D01*
X78598579Y-95230884D01*
X77550209Y-95227859D01*
X76516857Y-95223900D01*
X75512671Y-95219042D01*
X74551797Y-95213317D01*
X73648381Y-95206760D01*
X72816570Y-95199405D01*
X72070510Y-95191287D01*
X71424348Y-95182440D01*
X70892229Y-95172898D01*
X70488302Y-95162695D01*
X70226711Y-95151865D01*
X70121867Y-95140576D01*
X69958903Y-94999699D01*
X69852001Y-94826713D01*
X69771011Y-94629999D01*
X69652292Y-94340544D01*
X69530915Y-94043927D01*
X69379467Y-93680739D01*
X69218912Y-93306980D01*
X69111058Y-93063725D01*
X68980657Y-92762131D01*
X68825593Y-92383079D01*
X68681210Y-92013248D01*
X68566974Y-91685788D01*
X68502787Y-91406562D01*
X68493345Y-91139543D01*
X68524811Y-90956516D01*
X69506242Y-90956516D01*
X69515021Y-91009863D01*
X69535610Y-91033250D01*
X69585103Y-91053822D01*
X69673703Y-91071756D01*
X69811614Y-91087229D01*
X70009038Y-91100421D01*
X70276180Y-91111508D01*
X70623242Y-91120668D01*
X71060427Y-91128080D01*
X71597939Y-91133921D01*
X72245980Y-91138369D01*
X73014754Y-91141602D01*
X73914465Y-91143797D01*
X74955315Y-91145133D01*
X76147507Y-91145787D01*
X77322280Y-91145940D01*
X78784978Y-91145228D01*
X80082929Y-91143044D01*
X81221849Y-91139320D01*
X82207457Y-91133988D01*
X83045468Y-91126979D01*
X83741601Y-91118224D01*
X84301570Y-91107654D01*
X84731095Y-91095200D01*
X85035891Y-91080795D01*
X85221675Y-91064368D01*
X85287504Y-91050174D01*
X85414303Y-90934085D01*
X85573077Y-90713292D01*
X85733015Y-90441579D01*
X85863304Y-90172730D01*
X85933135Y-89960526D01*
X85937690Y-89915223D01*
X85970744Y-89812412D01*
X86056794Y-89603486D01*
X86159906Y-89371854D01*
X86315094Y-89021105D01*
X86470106Y-88651554D01*
X86545814Y-88461041D01*
X86654702Y-88183581D01*
X86750573Y-87949359D01*
X86787531Y-87864397D01*
X86948884Y-87506901D01*
X87095960Y-87172209D01*
X87213384Y-86896233D01*
X87285782Y-86714888D01*
X87301448Y-86663906D01*
X87337037Y-86556394D01*
X87440089Y-86307905D01*
X87605039Y-85931492D01*
X87776401Y-85550173D01*
X87858370Y-85356522D01*
X87897534Y-85238955D01*
X87898093Y-85233068D01*
X87930257Y-85135653D01*
X88014101Y-84929896D01*
X88117541Y-84691923D01*
X88255305Y-84382708D01*
X88382672Y-84096899D01*
X88451014Y-83943591D01*
X88561881Y-83651536D01*
X88585206Y-83441792D01*
X88541678Y-83283021D01*
X88523299Y-83257652D01*
X88484868Y-83235325D01*
X88416108Y-83215847D01*
X88306747Y-83199023D01*
X88146508Y-83184661D01*
X87925116Y-83172567D01*
X87632297Y-83162548D01*
X87257776Y-83154411D01*
X86791277Y-83147963D01*
X86222525Y-83143010D01*
X85541246Y-83139359D01*
X84737164Y-83136817D01*
X83800005Y-83135191D01*
X82719494Y-83134287D01*
X81485354Y-83133911D01*
X80611368Y-83133860D01*
X72746238Y-83133860D01*
X72523172Y-83604982D01*
X72405726Y-83858727D01*
X72324915Y-84044213D01*
X72300106Y-84113865D01*
X72267417Y-84205367D01*
X72182550Y-84404597D01*
X72087019Y-84617483D01*
X71973660Y-84873450D01*
X71896374Y-85063535D01*
X71873932Y-85136095D01*
X71841793Y-85239131D01*
X71760538Y-85438712D01*
X71713169Y-85546422D01*
X71579279Y-85847266D01*
X71427698Y-86192099D01*
X71367575Y-86330168D01*
X71247838Y-86605068D01*
X71145397Y-86838246D01*
X71105978Y-86926813D01*
X71035419Y-87090872D01*
X70925225Y-87354868D01*
X70803481Y-87651309D01*
X70659872Y-87997844D01*
X70514400Y-88339463D01*
X70416109Y-88562908D01*
X70319471Y-88787222D01*
X70261703Y-88941657D01*
X70254469Y-88973236D01*
X70222063Y-89073941D01*
X70138389Y-89278867D01*
X70055371Y-89468013D01*
X69806743Y-90035523D01*
X69635103Y-90464908D01*
X69536315Y-90767972D01*
X69506242Y-90956516D01*
X68524811Y-90956516D01*
X68543346Y-90848701D01*
X68657487Y-90498008D01*
G37*
G36*
X89176616Y-97623793D02*
G01*
X90028965Y-97623793D01*
X90028965Y-96174799D01*
X90710844Y-96174799D01*
X90710844Y-99498960D01*
X90028965Y-99498960D01*
X90028965Y-98049967D01*
X89176616Y-98049967D01*
X89176616Y-99498960D01*
X88494737Y-99498960D01*
X88494737Y-96174799D01*
X89176616Y-96174799D01*
X89176616Y-97623793D01*
G37*
%TD*%
D10*
%TO.C,Ref\u002A\u002A*%
X354203000Y-136120000D03*
X353143000Y-133560000D03*
X355703000Y-134620000D03*
D11*
X354203000Y-134620000D03*
D10*
X355263000Y-133560000D03*
X354203000Y-133120000D03*
X352703000Y-134620000D03*
X355263000Y-135680000D03*
X353143000Y-135680000D03*
%TD*%
%TO.C,Ref\u002A\u002A*%
X59944000Y-136247000D03*
X58884000Y-133687000D03*
X61444000Y-134747000D03*
D11*
X59944000Y-134747000D03*
D10*
X61004000Y-133687000D03*
X59944000Y-133247000D03*
X58444000Y-134747000D03*
X61004000Y-135807000D03*
X58884000Y-135807000D03*
%TD*%
%TO.C,Ref\u002A\u002A*%
X175387000Y-218670000D03*
X174327000Y-216110000D03*
X176887000Y-217170000D03*
D11*
X175387000Y-217170000D03*
D10*
X176447000Y-216110000D03*
X175387000Y-215670000D03*
X173887000Y-217170000D03*
X176447000Y-218230000D03*
X174327000Y-218230000D03*
%TD*%
%TO.C,Ref\u002A\u002A*%
X251587000Y-218670000D03*
X250527000Y-216110000D03*
X253087000Y-217170000D03*
D11*
X251587000Y-217170000D03*
D10*
X252647000Y-216110000D03*
X251587000Y-215670000D03*
X250087000Y-217170000D03*
X252647000Y-218230000D03*
X250527000Y-218230000D03*
%TD*%
%TO.C,Ref\u002A\u002A*%
X61087000Y-218670000D03*
X60027000Y-216110000D03*
X62587000Y-217170000D03*
D11*
X61087000Y-217170000D03*
D10*
X62147000Y-216110000D03*
X61087000Y-215670000D03*
X59587000Y-217170000D03*
X62147000Y-218230000D03*
X60027000Y-218230000D03*
%TD*%
%TO.C,Ref\u002A\u002A*%
X353060000Y-218670000D03*
X352000000Y-216110000D03*
X354560000Y-217170000D03*
D11*
X353060000Y-217170000D03*
D10*
X354120000Y-216110000D03*
X353060000Y-215670000D03*
X351560000Y-217170000D03*
X354120000Y-218230000D03*
X352000000Y-218230000D03*
%TD*%
%TO.C,Ref\u002A\u002A*%
X251460000Y-53697000D03*
X250400000Y-51137000D03*
X252960000Y-52197000D03*
D11*
X251460000Y-52197000D03*
D10*
X252520000Y-51137000D03*
X251460000Y-50697000D03*
X249960000Y-52197000D03*
X252520000Y-53257000D03*
X250400000Y-53257000D03*
%TD*%
%TO.C,Ref\u002A\u002A*%
X175260000Y-53697000D03*
X174200000Y-51137000D03*
X176760000Y-52197000D03*
D11*
X175260000Y-52197000D03*
D10*
X176320000Y-51137000D03*
X175260000Y-50697000D03*
X173760000Y-52197000D03*
X176320000Y-53257000D03*
X174200000Y-53257000D03*
%TD*%
%TO.C,Ref\u002A\u002A*%
X351873000Y-53257000D03*
X353993000Y-53257000D03*
X351433000Y-52197000D03*
X352933000Y-50697000D03*
X353993000Y-51137000D03*
D11*
X352933000Y-52197000D03*
D10*
X354433000Y-52197000D03*
X351873000Y-51137000D03*
X352933000Y-53697000D03*
%TD*%
%TO.C,Ref\u002A\u002A*%
X60960000Y-53697000D03*
X59900000Y-51137000D03*
X62460000Y-52197000D03*
D11*
X60960000Y-52197000D03*
D10*
X62020000Y-51137000D03*
X60960000Y-50697000D03*
X59460000Y-52197000D03*
X62020000Y-53257000D03*
X59900000Y-53257000D03*
%TD*%
%TO.C,Ref\u002A\u002A*%
X251460000Y-136120000D03*
X250400000Y-133560000D03*
X252960000Y-134620000D03*
D11*
X251460000Y-134620000D03*
D10*
X252520000Y-133560000D03*
X251460000Y-133120000D03*
X249960000Y-134620000D03*
X252520000Y-135680000D03*
X250400000Y-135680000D03*
%TD*%
%TO.C,Ref\u002A\u002A*%
X327660000Y-136120000D03*
X326600000Y-133560000D03*
X329160000Y-134620000D03*
D11*
X327660000Y-134620000D03*
D10*
X328720000Y-133560000D03*
X327660000Y-133120000D03*
X326160000Y-134620000D03*
X328720000Y-135680000D03*
X326600000Y-135680000D03*
%TD*%
%TO.C,Ref\u002A\u002A*%
X327660000Y-78970000D03*
X326600000Y-76410000D03*
X329160000Y-77470000D03*
D11*
X327660000Y-77470000D03*
D10*
X328720000Y-76410000D03*
X327660000Y-75970000D03*
X326160000Y-77470000D03*
X328720000Y-78530000D03*
X326600000Y-78530000D03*
%TD*%
%TO.C,Ref\u002A\u002A*%
X251460000Y-78970000D03*
X250400000Y-76410000D03*
X252960000Y-77470000D03*
D11*
X251460000Y-77470000D03*
D10*
X252520000Y-76410000D03*
X251460000Y-75970000D03*
X249960000Y-77470000D03*
X252520000Y-78530000D03*
X250400000Y-78530000D03*
%TD*%
%TO.C,Ref\u002A\u002A*%
X194310000Y-78970000D03*
X193250000Y-76410000D03*
X195810000Y-77470000D03*
D11*
X194310000Y-77470000D03*
D10*
X195370000Y-76410000D03*
X194310000Y-75970000D03*
X192810000Y-77470000D03*
X195370000Y-78530000D03*
X193250000Y-78530000D03*
%TD*%
%TO.C,Ref\u002A\u002A*%
X194304374Y-136092986D03*
X193244374Y-133532986D03*
X195804374Y-134592986D03*
D11*
X194304374Y-134592986D03*
D10*
X195364374Y-133532986D03*
X194304374Y-133092986D03*
X192804374Y-134592986D03*
X195364374Y-135652986D03*
X193244374Y-135652986D03*
%TD*%
%TO.C,Ref\u002A\u002A*%
X118110000Y-78970000D03*
X117050000Y-76410000D03*
X119610000Y-77470000D03*
D11*
X118110000Y-77470000D03*
D10*
X119170000Y-76410000D03*
X118110000Y-75970000D03*
X116610000Y-77470000D03*
X119170000Y-78530000D03*
X117050000Y-78530000D03*
%TD*%
%TO.C,Ref\u002A\u002A*%
X118110000Y-136120000D03*
X117050000Y-133560000D03*
X119610000Y-134620000D03*
D11*
X118110000Y-134620000D03*
D10*
X119170000Y-133560000D03*
X118110000Y-133120000D03*
X116610000Y-134620000D03*
X119170000Y-135680000D03*
X117050000Y-135680000D03*
%TD*%
%TO.C,Ref\u002A\u002A*%
X251460000Y-174220000D03*
X250400000Y-171660000D03*
X252960000Y-172720000D03*
D11*
X251460000Y-172720000D03*
D10*
X252520000Y-171660000D03*
X251460000Y-171220000D03*
X249960000Y-172720000D03*
X252520000Y-173780000D03*
X250400000Y-173780000D03*
%TD*%
%TO.C,Ref\u002A\u002A*%
X327406000Y-193270000D03*
X326346000Y-190710000D03*
X328906000Y-191770000D03*
D11*
X327406000Y-191770000D03*
D10*
X328466000Y-190710000D03*
X327406000Y-190270000D03*
X325906000Y-191770000D03*
X328466000Y-192830000D03*
X326346000Y-192830000D03*
%TD*%
%TO.C,Ref\u002A\u002A*%
X213360000Y-193270000D03*
X212300000Y-190710000D03*
X214860000Y-191770000D03*
D11*
X213360000Y-191770000D03*
D10*
X214420000Y-190710000D03*
X213360000Y-190270000D03*
X211860000Y-191770000D03*
X214420000Y-192830000D03*
X212300000Y-192830000D03*
%TD*%
%TO.C,Ref\u002A\u002A*%
X118110000Y-193270000D03*
X117050000Y-190710000D03*
X119610000Y-191770000D03*
D11*
X118110000Y-191770000D03*
D10*
X119170000Y-190710000D03*
X118110000Y-190270000D03*
X116610000Y-191770000D03*
X119170000Y-192830000D03*
X117050000Y-192830000D03*
%TD*%
%TO.C,Ref\u002A\u002A*%
X80010000Y-193270000D03*
X78950000Y-190710000D03*
X81510000Y-191770000D03*
D11*
X80010000Y-191770000D03*
D10*
X81070000Y-190710000D03*
X80010000Y-190270000D03*
X78510000Y-191770000D03*
X81070000Y-192830000D03*
X78950000Y-192830000D03*
%TD*%
D11*
%TO.C,Ref\u002A\u002A*%
X80010000Y-153670000D03*
D10*
X81510000Y-153670000D03*
X78510000Y-153670000D03*
X80010000Y-155170000D03*
X80010000Y-152170000D03*
X81070000Y-154730000D03*
X78950000Y-154730000D03*
X78950000Y-152610000D03*
X81070000Y-152610000D03*
%TD*%
M02*
