%TF.GenerationSoftware,KiCad,Pcbnew,(6.0.0)*%
%TF.CreationDate,2023-01-05T23:03:01-06:00*%
%TF.ProjectId,Ortholith Top Plate (3D Printed Base),4f727468-6f6c-4697-9468-20546f702050,rev?*%
%TF.SameCoordinates,Original*%
%TF.FileFunction,Other,Comment*%
%FSLAX46Y46*%
G04 Gerber Fmt 4.6, Leading zero omitted, Abs format (unit mm)*
G04 Created by KiCad (PCBNEW (6.0.0)) date 2023-01-05 23:03:01*
%MOMM*%
%LPD*%
G01*
G04 APERTURE LIST*
%ADD10C,0.150000*%
G04 APERTURE END LIST*
D10*
%TO.C,Ref\u002A\u002A*%
X356403000Y-134620000D02*
G75*
G03*
X356403000Y-134620000I-2200000J0D01*
G01*
X62144000Y-134747000D02*
G75*
G03*
X62144000Y-134747000I-2200000J0D01*
G01*
X177587000Y-217170000D02*
G75*
G03*
X177587000Y-217170000I-2200000J0D01*
G01*
X253787000Y-217170000D02*
G75*
G03*
X253787000Y-217170000I-2200000J0D01*
G01*
X63287000Y-217170000D02*
G75*
G03*
X63287000Y-217170000I-2200000J0D01*
G01*
X355260000Y-217170000D02*
G75*
G03*
X355260000Y-217170000I-2200000J0D01*
G01*
X253660000Y-52197000D02*
G75*
G03*
X253660000Y-52197000I-2200000J0D01*
G01*
X177460000Y-52197000D02*
G75*
G03*
X177460000Y-52197000I-2200000J0D01*
G01*
X355133000Y-52197000D02*
G75*
G03*
X355133000Y-52197000I-2200000J0D01*
G01*
X63160000Y-52197000D02*
G75*
G03*
X63160000Y-52197000I-2200000J0D01*
G01*
X253660000Y-134620000D02*
G75*
G03*
X253660000Y-134620000I-2200000J0D01*
G01*
X329860000Y-134620000D02*
G75*
G03*
X329860000Y-134620000I-2200000J0D01*
G01*
X329860000Y-77470000D02*
G75*
G03*
X329860000Y-77470000I-2200000J0D01*
G01*
X253660000Y-77470000D02*
G75*
G03*
X253660000Y-77470000I-2200000J0D01*
G01*
X196510000Y-77470000D02*
G75*
G03*
X196510000Y-77470000I-2200000J0D01*
G01*
X196504374Y-134592986D02*
G75*
G03*
X196504374Y-134592986I-2200000J0D01*
G01*
X120310000Y-77470000D02*
G75*
G03*
X120310000Y-77470000I-2200000J0D01*
G01*
X120310000Y-134620000D02*
G75*
G03*
X120310000Y-134620000I-2200000J0D01*
G01*
X253660000Y-172720000D02*
G75*
G03*
X253660000Y-172720000I-2200000J0D01*
G01*
X329606000Y-191770000D02*
G75*
G03*
X329606000Y-191770000I-2200000J0D01*
G01*
X215560000Y-191770000D02*
G75*
G03*
X215560000Y-191770000I-2200000J0D01*
G01*
X120310000Y-191770000D02*
G75*
G03*
X120310000Y-191770000I-2200000J0D01*
G01*
X82210000Y-191770000D02*
G75*
G03*
X82210000Y-191770000I-2200000J0D01*
G01*
X82210000Y-153670000D02*
G75*
G03*
X82210000Y-153670000I-2200000J0D01*
G01*
%TD*%
M02*
